<?xml version="1.0" encoding="utf-8"?>
<!-- Generator: Adobe Illustrator 16.0.0, SVG Export Plug-In . SVG Version: 6.00 Build 0)  -->
<!DOCTYPE svg PUBLIC "-//W3C//DTD SVG 1.1//EN" "http://www.w3.org/Graphics/SVG/1.1/DTD/svg11.dtd">
<svg version="1.1" id="Layer_1" xmlns="http://www.w3.org/2000/svg" xmlns:xlink="http://www.w3.org/1999/xlink" x="0px" y="0px"
	 width="584.971px" height="165.705px" viewBox="-204.332 38.145 584.971 165.705"
	 enable-background="new -204.332 38.145 584.971 165.705" xml:space="preserve">
<g>
	<g>
		
			<linearGradient id="SVGID_1_" gradientUnits="userSpaceOnUse" x1="-239.8267" y1="194.0413" x2="-228.1587" y2="194.0413" gradientTransform="matrix(1 0 0 -1 579.0098 265.5103)">
			<stop  offset="0" style="stop-color:#FFB833"/>
			<stop  offset="1" style="stop-color:#FF6133"/>
		</linearGradient>
		<polygon fill="url(#SVGID_1_)" points="350.851,68.201 348.287,65.637 339.183,74.741 341.748,77.302 		"/>
		
			<linearGradient id="SVGID_2_" gradientUnits="userSpaceOnUse" x1="-239.7212" y1="193.9348" x2="-228.0552" y2="193.9348" gradientTransform="matrix(1 0 0 -1 579.0098 265.5103)">
			<stop  offset="0" style="stop-color:#FFB833"/>
			<stop  offset="1" style="stop-color:#FF6133"/>
		</linearGradient>
		<polygon fill="url(#SVGID_2_)" points="341.851,65.742 339.289,68.305 348.39,77.408 350.955,74.846 		"/>
	</g>
	<g>
		<g>
			<path fill="#FFFFFF" d="M-159.098,98.312c3.344,3.402,5.02,8.393,5.02,14.97v26.814h-5.818v-26.396c0-5-1.266-8.838-3.797-11.509
				c-2.531-2.667-5.987-4.006-10.374-4.006c-4.606,0-8.277,1.479-11.001,4.431c-2.728,2.949-4.092,7.29-4.092,13.025v24.455h-5.987
				V94.057h5.987v11.296c1.18-3.934,3.317-6.945,6.408-9.02c3.091-2.08,6.637-3.124,10.626-3.124
				C-166.784,93.209-162.444,94.914-159.098,98.312z"/>
			<path fill="#FFFFFF" d="M-109.006,96.287c3.453,1.887,6.167,4.612,8.138,8.183c1.966,3.569,2.949,7.771,2.949,12.607
				c0,4.832-0.983,9.021-2.949,12.563c-1.971,3.544-4.685,6.27-8.138,8.18c-3.459,1.912-7.379,2.867-11.766,2.867
				c-4.384,0-8.319-0.955-11.806-2.867c-3.485-1.91-6.229-4.651-8.224-8.221c-1.995-3.57-2.992-7.743-2.992-12.521
				c0-4.836,0.997-9.038,2.992-12.607c1.995-3.57,4.738-6.296,8.224-8.183c3.486-1.882,7.422-2.821,11.806-2.821
				C-116.385,93.466-112.465,94.406-109.006,96.287z M-129.204,100.634c-2.587,1.346-4.665,3.413-6.242,6.193
				c-1.573,2.783-2.359,6.201-2.359,10.25c0,4.047,0.786,7.449,2.359,10.201c1.577,2.756,3.655,4.807,6.242,6.155
				c2.588,1.351,5.395,2.026,8.433,2.026c2.979,0,5.746-0.676,8.307-2.026c2.555-1.349,4.622-3.399,6.199-6.155
				c1.574-2.752,2.359-6.154,2.359-10.201c0-4.049-0.785-7.467-2.359-10.25c-1.577-2.78-3.645-4.848-6.199-6.193
				c-2.561-1.352-5.328-2.024-8.307-2.024C-123.81,98.61-126.616,99.282-129.204,100.634z"/>
			<path fill="#FFFFFF" d="M-66.379,134.868v5.228h-5.483c-4.442,0-7.76-1.053-9.953-3.16c-2.19-2.11-3.287-5.663-3.287-10.669
				v-27.07h-6.998v-5.14h6.998V82.414h5.987v11.643h12.65v5.14h-12.65v27.155c0,3.262,0.59,5.495,1.772,6.703
				c1.18,1.21,3.26,1.813,6.239,1.813H-66.379z"/>
			<path fill="#FFFFFF" d="M-20.637,98.312c3.347,3.402,5.018,8.393,5.018,14.97v26.814h-5.816v-26.396
				c0-5-1.266-8.838-3.793-11.509c-2.532-2.667-5.99-4.006-10.375-4.006c-4.608,0-8.277,1.479-11.006,4.431
				c-2.725,2.949-4.089,7.29-4.089,13.025v24.455h-5.985V77.695h5.985v27.658c1.182-3.934,3.316-6.945,6.411-9.02
				c3.091-2.08,6.63-3.124,10.623-3.124C-28.323,93.209-23.979,94.914-20.637,98.312z"/>
			<path fill="#FFFFFF" d="M-3.264,77.441c0.814-0.729,1.868-1.097,3.161-1.097c1.292,0,2.332,0.367,3.121,1.097
				C3.806,78.176,4.2,79.156,4.2,80.393c0,1.179-0.395,2.14-1.182,2.87c-0.789,0.729-1.829,1.093-3.121,1.093
				c-1.293,0-2.347-0.364-3.161-1.093c-0.815-0.73-1.224-1.691-1.224-2.87C-4.487,79.156-4.079,78.176-3.264,77.441z M2.849,94.057
				v46.039h-5.983V94.057H2.849z"/>
			<path fill="#FFFFFF" d="M51.716,98.312c3.346,3.402,5.019,8.393,5.019,14.97v26.814h-5.82v-26.396c0-5-1.261-8.838-3.795-11.509
				c-2.525-2.667-5.983-4.006-10.371-4.006c-4.608,0-8.277,1.479-11.003,4.431c-2.73,2.949-4.092,7.29-4.092,13.025v24.455h-5.985
				V94.057h5.985v11.296c1.18-3.934,3.319-6.945,6.411-9.02c3.091-2.08,6.633-3.124,10.625-3.124
				C44.028,93.209,48.369,94.914,51.716,98.312z"/>
			<path fill="#FFFFFF" d="M100.542,97.088c3.289,2.42,5.549,5.624,6.785,9.616V94.057h5.82v47.139c0,4.27-0.898,8.022-2.695,11.256
				c-1.803,3.231-4.305,5.73-7.508,7.503c-3.203,1.77-6.863,2.657-10.961,2.657c-6.015,0-10.951-1.448-14.802-4.344
				c-3.85-2.893-6.364-6.818-7.545-11.763h5.902c1.014,3.375,2.883,6.04,5.606,8.012c2.728,1.965,6.228,2.952,10.499,2.952
				c2.919,0,5.58-0.633,7.97-1.899c2.389-1.263,4.27-3.134,5.648-5.606c1.379-2.475,2.064-5.399,2.064-8.768v-13.747
				c-1.236,3.99-3.496,7.198-6.785,9.612c-3.287,2.416-7.268,3.626-11.929,3.626c-4.168,0-7.889-0.955-11.177-2.867
				c-3.289-1.91-5.847-4.651-7.674-8.221c-1.828-3.57-2.742-7.743-2.742-12.521c0-4.836,0.914-9.038,2.742-12.607
				c1.827-3.57,4.371-6.296,7.632-8.183c3.258-1.882,6.998-2.821,11.219-2.821C93.275,93.466,97.255,94.674,100.542,97.088z
				 M77.689,103.626c-3.121,3.287-4.682,7.771-4.682,13.451c0,5.677,1.561,10.16,4.682,13.447c3.12,3.289,7.263,4.936,12.438,4.936
				c3.261,0,6.197-0.761,8.814-2.276c2.615-1.522,4.662-3.673,6.154-6.453c1.486-2.784,2.232-6.003,2.232-9.653
				c0-3.656-0.746-6.877-2.232-9.66c-1.492-2.78-3.539-4.931-6.154-6.448c-2.617-1.518-5.553-2.276-8.814-2.276
				C84.952,98.693,80.81,100.339,77.689,103.626z"/>
		</g>
	</g>
	<g>
		<g>
			<path fill="#FFFFFF" d="M238.535,95.363c3.682,1.936,6.578,4.734,8.684,8.39c2.109,3.654,3.166,7.926,3.166,12.815
				c0,4.895-1.057,9.165-3.166,12.817c-2.105,3.659-5.002,6.45-8.684,8.393c-3.686,1.941-7.857,2.909-12.521,2.909
				c-4.672,0-8.855-0.968-12.566-2.909c-3.709-1.942-6.619-4.733-8.729-8.393c-2.107-3.652-3.164-7.923-3.164-12.817
				c0-4.89,1.057-9.161,3.164-12.815c2.109-3.655,5.02-6.454,8.729-8.39c3.711-1.942,7.895-2.912,12.566-2.912
				C230.677,92.45,234.849,93.42,238.535,95.363z M219.056,107.924c-1.887,1.997-2.826,4.88-2.826,8.644
				c0,3.771,0.939,6.635,2.826,8.603c1.885,1.969,4.201,2.954,6.957,2.954c2.754,0,5.061-0.985,6.912-2.954
				c1.855-1.968,2.783-4.832,2.783-8.603c0-3.764-0.928-6.646-2.783-8.644c-1.852-1.995-4.158-2.99-6.912-2.99
				C223.257,104.934,220.941,105.929,219.056,107.924z"/>
			<path fill="#FFFFFF" d="M300.595,97.934c3.178,3.599,4.766,8.544,4.766,14.841v27.321h-14.42v-25.635
				c0-3.145-0.832-5.609-2.484-7.379c-1.658-1.77-3.869-2.654-6.621-2.654c-2.924,0-5.242,0.925-6.959,2.78
				c-1.715,1.855-2.57,4.499-2.57,7.929v24.959h-14.42V93.04h14.42v8.604c1.348-2.812,3.359-5.031,6.029-6.662
				c2.67-1.627,5.803-2.445,9.4-2.445C293.134,92.536,297.421,94.336,300.595,97.934z"/>
		</g>
	</g>
	<g>
		<linearGradient id="SVGID_3_" gradientUnits="userSpaceOnUse" x1="321.3901" y1="74.9456" x2="360.9194" y2="74.9456">
			<stop  offset="0" style="stop-color:#FFB833"/>
			<stop  offset="1" style="stop-color:#FF6133"/>
		</linearGradient>
		<polygon fill="url(#SVGID_3_)" points="321.39,59.072 357.812,59.072 357.812,93.931 360.919,93.931 360.919,55.961 
			321.39,55.961 		"/>
		<linearGradient id="SVGID_4_" gradientUnits="userSpaceOnUse" x1="321.3901" y1="159.7268" x2="360.9194" y2="159.7268">
			<stop  offset="0" style="stop-color:#FFB833"/>
			<stop  offset="1" style="stop-color:#FF6133"/>
		</linearGradient>
		<polygon fill="url(#SVGID_4_)" points="357.812,141.263 357.812,175.082 321.39,175.082 321.39,178.19 360.919,178.19 
			360.919,141.263 		"/>
	</g>
	<linearGradient id="SVGID_5_" gradientUnits="userSpaceOnUse" x1="153.5757" y1="74.9456" x2="188.9448" y2="74.9456">
		<stop  offset="0" style="stop-color:#FFB833"/>
		<stop  offset="1" style="stop-color:#FF6133"/>
	</linearGradient>
	<polygon fill="url(#SVGID_5_)" points="156.685,93.931 156.685,59.072 188.945,59.072 188.945,55.961 153.576,55.961 
		153.576,93.931 	"/>
	<linearGradient id="SVGID_6_" gradientUnits="userSpaceOnUse" x1="153.5757" y1="159.7268" x2="188.9448" y2="159.7268">
		<stop  offset="0" style="stop-color:#FFB833"/>
		<stop  offset="1" style="stop-color:#FF6133"/>
	</linearGradient>
	<polygon fill="url(#SVGID_6_)" points="188.945,175.082 156.685,175.082 156.685,141.263 153.576,141.263 153.576,178.19 
		188.945,178.19 	"/>
</g>
</svg>
