<?xml version="1.0" encoding="utf-8"?>
<!-- Generator: Adobe Illustrator 16.0.0, SVG Export Plug-In . SVG Version: 6.00 Build 0)  -->
<!DOCTYPE svg PUBLIC "-//W3C//DTD SVG 1.1//EN" "http://www.w3.org/Graphics/SVG/1.1/DTD/svg11.dtd">
<svg version="1.1" id="Layer_1" xmlns="http://www.w3.org/2000/svg" xmlns:xlink="http://www.w3.org/1999/xlink" x="0px" y="0px"
	 width="257.987px" height="82.853px" viewBox="-204.332 38.145 257.987 82.853"
	 enable-background="new -204.332 38.145 257.987 82.853" xml:space="preserve">
<g>
	<g>
		
			<linearGradient id="SVGID_1_" gradientUnits="userSpaceOnUse" x1="-555.7817" y1="203.2112" x2="-551.0132" y2="203.2112" gradientTransform="matrix(1 0 0 -1 579.0098 265.5103)">
			<stop  offset="0" style="stop-color:#FFB833"/>
			<stop  offset="1" style="stop-color:#FF6133"/>
		</linearGradient>
		<polygon fill="url(#SVGID_1_)" points="27.997,60.963 26.949,59.915 23.228,63.636 24.276,64.684 		"/>
		
			<linearGradient id="SVGID_2_" gradientUnits="userSpaceOnUse" x1="-555.7388" y1="203.1682" x2="-550.9712" y2="203.1682" gradientTransform="matrix(1 0 0 -1 579.0098 265.5103)">
			<stop  offset="0" style="stop-color:#FFB833"/>
			<stop  offset="1" style="stop-color:#FF6133"/>
		</linearGradient>
		<polygon fill="url(#SVGID_2_)" points="24.318,59.958 23.271,61.006 26.991,64.727 28.039,63.679 		"/>
	</g>
	<g>
		<g>
			<path fill="#FFFFFF" d="M-180.415,73.27c1.366,1.39,2.052,3.43,2.052,6.117v10.959h-2.378V79.558
				c0-2.044-0.518-3.612-1.552-4.703c-1.035-1.091-2.447-1.638-4.24-1.638c-1.883,0-3.383,0.604-4.496,1.812
				c-1.115,1.204-1.672,2.979-1.672,5.323v9.994h-2.447V71.531h2.447v4.617c0.482-1.607,1.355-2.839,2.618-3.687
				c1.264-0.851,2.713-1.277,4.344-1.277C-183.556,71.184-181.782,71.88-180.415,73.27z"/>
			<path fill="#FFFFFF" d="M-159.942,72.442c1.412,0.771,2.521,1.886,3.326,3.345c0.804,1.458,1.206,3.177,1.206,5.151
				c0,1.977-0.401,3.688-1.206,5.135c-0.805,1.449-1.914,2.563-3.326,3.344c-1.414,0.782-3.016,1.172-4.808,1.172
				s-3.4-0.39-4.825-1.172c-1.425-0.781-2.545-1.901-3.361-3.36c-0.816-1.459-1.223-3.164-1.223-5.118
				c0-1.975,0.407-3.693,1.223-5.151c0.815-1.459,1.936-2.573,3.361-3.345c1.425-0.77,3.033-1.152,4.825-1.152
				S-161.356,71.672-159.942,72.442z M-168.197,74.218c-1.057,0.551-1.907,1.396-2.551,2.532c-0.643,1.137-0.964,2.533-0.964,4.188
				s0.321,3.046,0.964,4.17c0.645,1.126,1.495,1.965,2.551,2.516c1.058,0.553,2.205,0.828,3.447,0.828
				c1.217,0,2.349-0.275,3.395-0.828c1.044-0.551,1.889-1.39,2.533-2.516c0.644-1.124,0.964-2.516,0.964-4.17
				s-0.321-3.051-0.964-4.188c-0.644-1.137-1.489-1.981-2.533-2.532c-1.046-0.553-2.177-0.826-3.395-0.826
				C-165.992,73.392-167.139,73.665-168.197,74.218z"/>
			<path fill="#FFFFFF" d="M-142.521,88.21v2.136h-2.241c-1.815,0-3.171-0.43-4.067-1.291c-0.896-0.863-1.343-2.314-1.343-4.36
				V73.631h-2.86v-2.101h2.86v-4.758h2.447v4.758h5.17v2.101h-5.17V84.73c0,1.333,0.241,2.245,0.724,2.738
				c0.482,0.495,1.333,0.742,2.55,0.742H-142.521z"/>
			<path fill="#FFFFFF" d="M-123.827,73.27c1.367,1.39,2.051,3.43,2.051,6.117v10.959h-2.377V79.558c0-2.044-0.518-3.612-1.55-4.703
				c-1.036-1.091-2.448-1.638-4.24-1.638c-1.884,0-3.383,0.604-4.498,1.812c-1.114,1.204-1.671,2.979-1.671,5.323v9.994h-2.446
				V64.843h2.446v11.305c0.482-1.607,1.355-2.839,2.62-3.687c1.263-0.851,2.709-1.277,4.341-1.277
				C-126.968,71.184-125.193,71.88-123.827,73.27z"/>
			<path fill="#FFFFFF" d="M-116.727,64.74c0.333-0.298,0.763-0.448,1.292-0.448c0.529,0,0.954,0.15,1.276,0.448
				c0.322,0.3,0.483,0.701,0.483,1.207c0,0.481-0.161,0.874-0.483,1.173c-0.322,0.298-0.747,0.447-1.276,0.447
				c-0.528,0-0.959-0.149-1.292-0.447c-0.333-0.299-0.5-0.691-0.5-1.173C-117.227,65.441-117.06,65.039-116.727,64.74z
				 M-114.229,71.531v18.815h-2.445V71.531H-114.229z"/>
			<path fill="#FFFFFF" d="M-94.257,73.27c1.368,1.39,2.051,3.43,2.051,6.117v10.959h-2.379V79.558c0-2.044-0.515-3.612-1.551-4.703
				c-1.032-1.091-2.445-1.638-4.238-1.638c-1.883,0-3.383,0.604-4.497,1.812c-1.116,1.204-1.672,2.979-1.672,5.323v9.994h-2.446
				V71.531h2.446v4.617c0.482-1.607,1.356-2.839,2.62-3.687c1.263-0.851,2.711-1.277,4.342-1.277
				C-97.398,71.184-95.625,71.88-94.257,73.27z"/>
			<path fill="#FFFFFF" d="M-74.302,72.769c1.344,0.99,2.268,2.299,2.773,3.931v-5.169h2.379v19.266c0,1.743-0.367,3.278-1.101,4.6
				c-0.737,1.321-1.759,2.343-3.069,3.066c-1.309,0.724-2.805,1.086-4.48,1.086c-2.458,0-4.476-0.593-6.049-1.774
				c-1.574-1.183-2.602-2.787-3.083-4.808h2.412c0.415,1.38,1.178,2.469,2.291,3.274c1.115,0.803,2.545,1.207,4.291,1.207
				c1.193,0,2.281-0.261,3.258-0.777c0.976-0.516,1.745-1.281,2.309-2.292c0.563-1.011,0.843-2.206,0.843-3.582v-5.618
				c-0.505,1.63-1.429,2.941-2.773,3.928c-1.343,0.987-2.97,1.482-4.875,1.482c-1.704,0-3.224-0.39-4.568-1.172
				c-1.344-0.781-2.389-1.901-3.136-3.36s-1.121-3.164-1.121-5.118c0-1.975,0.374-3.693,1.121-5.151
				c0.747-1.459,1.787-2.573,3.119-3.345c1.331-0.77,2.859-1.152,4.585-1.152C-77.272,71.289-75.646,71.783-74.302,72.769z
				 M-83.642,75.442c-1.275,1.344-1.913,3.176-1.913,5.496s0.638,4.152,1.913,5.498c1.275,1.343,2.968,2.016,5.083,2.016
				c1.333,0,2.532-0.311,3.602-0.93c1.069-0.622,1.906-1.502,2.516-2.638c0.607-1.139,0.912-2.453,0.912-3.946
				s-0.305-2.809-0.912-3.947c-0.61-1.136-1.447-2.015-2.516-2.635c-1.069-0.62-2.269-0.931-3.602-0.931
				C-80.674,73.425-82.367,74.098-83.642,75.442z"/>
		</g>
	</g>
	<g>
		<g>
			<path fill="#FFFFFF" d="M-17.906,72.064c1.504,0.791,2.688,1.936,3.548,3.429c0.862,1.494,1.294,3.239,1.294,5.239
				c0,1.999-0.432,3.744-1.294,5.237c-0.86,1.495-2.044,2.637-3.548,3.43c-1.507,0.793-3.211,1.189-5.118,1.189
				c-1.909,0-3.619-0.396-5.136-1.189c-1.516-0.793-2.704-1.935-3.567-3.43c-0.862-1.493-1.293-3.238-1.293-5.237
				c0-2,0.431-3.745,1.293-5.239c0.863-1.493,2.051-2.638,3.567-3.429c1.517-0.794,3.227-1.19,5.136-1.19
				C-21.117,70.873-19.413,71.27-17.906,72.064z M-25.867,77.198c-0.771,0.816-1.155,1.993-1.155,3.533
				c0,1.539,0.385,2.71,1.155,3.515c0.771,0.804,1.717,1.207,2.843,1.207s2.068-0.403,2.825-1.207
				c0.758-0.805,1.138-1.976,1.138-3.515c0-1.54-0.379-2.717-1.138-3.533c-0.757-0.815-1.699-1.223-2.825-1.223
				S-25.096,76.383-25.867,77.198z"/>
			<path fill="#FFFFFF" d="M7.458,73.115c1.299,1.471,1.948,3.493,1.948,6.065v11.166H3.512V79.87c0-1.285-0.341-2.294-1.016-3.017
				C1.819,76.13,0.915,75.77-0.209,75.77c-1.195,0-2.142,0.378-2.844,1.135c-0.701,0.759-1.051,1.839-1.051,3.241v10.2h-5.894
				v-19.23h5.894v3.516c0.551-1.148,1.373-2.056,2.464-2.722c1.092-0.666,2.372-1.001,3.842-1.001
				C4.408,70.908,6.16,71.645,7.458,73.115z"/>
		</g>
	</g>
	<g>
		<linearGradient id="SVGID_3_" gradientUnits="userSpaceOnUse" x1="15.9565" y1="63.72" x2="32.1113" y2="63.72">
			<stop  offset="0" style="stop-color:#FFB833"/>
			<stop  offset="1" style="stop-color:#FF6133"/>
		</linearGradient>
		<polygon fill="url(#SVGID_3_)" points="15.957,57.232 30.841,57.232 30.841,71.479 32.111,71.479 32.111,55.961 15.957,55.961 		
			"/>
		<linearGradient id="SVGID_4_" gradientUnits="userSpaceOnUse" x1="15.9565" y1="98.3694" x2="32.1113" y2="98.3694">
			<stop  offset="0" style="stop-color:#FFB833"/>
			<stop  offset="1" style="stop-color:#FF6133"/>
		</linearGradient>
		<polygon fill="url(#SVGID_4_)" points="30.841,90.823 30.841,104.644 15.957,104.644 15.957,105.914 32.111,105.914 
			32.111,90.823 		"/>
	</g>
	<linearGradient id="SVGID_5_" gradientUnits="userSpaceOnUse" x1="-52.6274" y1="63.72" x2="-38.1724" y2="63.72">
		<stop  offset="0" style="stop-color:#FFB833"/>
		<stop  offset="1" style="stop-color:#FF6133"/>
	</linearGradient>
	<polygon fill="url(#SVGID_5_)" points="-51.357,71.479 -51.357,57.232 -38.172,57.232 -38.172,55.961 -52.627,55.961 
		-52.627,71.479 	"/>
	<linearGradient id="SVGID_6_" gradientUnits="userSpaceOnUse" x1="-52.6274" y1="98.3694" x2="-38.1724" y2="98.3694">
		<stop  offset="0" style="stop-color:#FFB833"/>
		<stop  offset="1" style="stop-color:#FF6133"/>
	</linearGradient>
	<polygon fill="url(#SVGID_6_)" points="-38.172,104.644 -51.357,104.644 -51.357,90.823 -52.627,90.823 -52.627,105.914 
		-38.172,105.914 	"/>
</g>
</svg>
